<svg width="24" height="24" viewBox="0 0 24 24" fill="none" xmlns="http://www.w3.org/2000/svg">
<path d="M22.8528 10.1435L20.6646 5.94573C20.512 5.65524 20.2521 5.43576 19.9402 5.334C19.6282 5.23224 19.2889 5.25625 18.9944 5.40092L16.8776 6.46376H15.3325L12.3494 5.11511C12.0785 4.98736 11.7696 4.96508 11.4831 5.05259L7.07095 6.33872L5.00779 5.30267C4.71291 5.16031 4.37439 5.13753 4.06309 5.23907C3.75179 5.34062 3.49183 5.55864 3.33761 5.84749L1.14941 10.0542C1.06991 10.2006 1.02091 10.3616 1.00537 10.5274C0.989835 10.6933 1.00808 10.8605 1.059 11.0192C1.10992 11.1778 1.19246 11.3244 1.30164 11.4502C1.41082 11.5761 1.54437 11.6784 1.69423 11.7511L3.85563 12.8319L8.69647 16.6098C8.83144 16.7219 8.99031 16.8013 9.16088 16.8421L14.3411 18.1371C14.4373 18.1622 14.5364 18.1742 14.6359 18.1729C14.9673 18.1719 15.285 18.0403 15.5201 17.8067L18.8069 14.5199H18.8426L20.2002 12.9033L22.308 11.8494C22.4574 11.7738 22.5904 11.6694 22.6992 11.5422C22.808 11.4149 22.8906 11.2674 22.9421 11.1081C22.9921 10.9495 23.01 10.7824 22.9947 10.6168C22.9793 10.4512 22.9311 10.2902 22.8528 10.1435ZM18.3424 13.4124L14.8145 10.8491C14.7216 10.7829 14.61 10.748 14.4959 10.7497C14.382 10.7513 14.2714 10.7893 14.1804 10.858L13.0371 11.7154C12.6346 12.0155 12.1459 12.1777 11.6438 12.1777C11.1417 12.1777 10.6531 12.0155 10.2505 11.7154L9.76823 11.3493C9.74562 11.3351 9.72714 11.3153 9.71459 11.2918C9.70205 11.2683 9.69591 11.2419 9.69682 11.2153C9.69467 11.1903 9.69839 11.1652 9.70773 11.142C9.71701 11.1187 9.73164 11.0979 9.75039 11.0813L13.2426 7.58021C13.2784 7.55244 13.3223 7.53683 13.3676 7.53552H16.6812L19.2177 12.3942L18.3424 13.4124ZM2.08721 10.6883C2.07756 10.6654 2.07334 10.6406 2.07489 10.6158C2.07644 10.591 2.08371 10.567 2.09614 10.5454L4.29328 6.33872C4.30945 6.31065 4.33296 6.28752 4.36128 6.27178C4.3896 6.25605 4.42166 6.24831 4.45404 6.24941C4.47927 6.24587 4.50489 6.25227 4.52549 6.26727L6.27605 7.13363L3.90923 11.6618L2.17652 10.7866C2.15517 10.778 2.13603 10.7648 2.12056 10.7477C2.10509 10.7307 2.09368 10.7104 2.08721 10.6883ZM14.7699 17.0475C14.7478 17.0689 14.7206 17.0843 14.6909 17.0921C14.6612 17.0999 14.6299 17.0999 14.6001 17.0922L9.4199 15.8061L9.35739 15.7703L4.82023 12.2245L7.35674 7.3658L11.7868 6.0797C11.8283 6.06958 11.8721 6.07271 11.9118 6.08864L12.921 6.54414C12.757 6.60822 12.608 6.70553 12.4834 6.82995L8.99123 10.3221C8.86312 10.4481 8.76395 10.6003 8.70046 10.7684C8.63689 10.9363 8.61063 11.1162 8.62337 11.2953C8.63611 11.4745 8.68759 11.6488 8.77421 11.8061C8.86083 11.9635 8.98058 12.1001 9.12521 12.2067L9.60746 12.5728C10.1972 13.008 10.9109 13.2428 11.6438 13.2428C12.3768 13.2428 13.0904 13.008 13.6802 12.5728L14.5108 11.9476L17.61 14.2073L14.7699 17.0475ZM21.915 10.7776C21.9091 10.8011 21.898 10.8228 21.8825 10.8414C21.8671 10.86 21.8477 10.8748 21.8257 10.8848L20.093 11.7511L17.7262 7.23188L19.4767 6.35658C19.5184 6.33772 19.5657 6.33555 19.6088 6.3505C19.652 6.36545 19.6879 6.3964 19.7089 6.43697L21.9061 10.6437C21.9184 10.6636 21.9257 10.6862 21.9272 10.7096C21.9288 10.7329 21.9246 10.7563 21.915 10.7776ZM11.0901 19.6287C11.0607 19.7445 10.9942 19.8475 10.9005 19.9217C10.8069 19.9959 10.6915 20.0373 10.5721 20.0395L10.4381 20.0217L7.74975 19.3429C7.55775 19.2973 7.37987 19.2053 7.23171 19.075L5.22214 17.3244C5.15912 17.2821 5.1058 17.2269 5.06573 17.1624C5.02566 17.0979 4.99974 17.0257 4.9897 16.9504C4.97966 16.8751 4.98571 16.7986 5.00747 16.7259C5.02923 16.6532 5.06619 16.5859 5.11591 16.5285C5.16563 16.4712 5.22696 16.425 5.29586 16.3931C5.36477 16.3613 5.43965 16.3444 5.51556 16.3436C5.59147 16.3429 5.66667 16.3583 5.73619 16.3888C5.8057 16.4193 5.86795 16.4642 5.9188 16.5205L7.93731 18.2711C7.95814 18.2883 7.98251 18.3004 8.00877 18.3068L10.7061 18.9767C10.8433 19.0124 10.9608 19.1011 11.0328 19.2233C11.1048 19.3455 11.1254 19.4913 11.0901 19.6287Z" fill="#2F80ED"/>
</svg>
