<svg width="184" height="45" viewBox="0 0 184 45" fill="none" xmlns="http://www.w3.org/2000/svg">
<path fill-rule="evenodd" clip-rule="evenodd" d="M0 0H10.25V2.5H2.5V20.25H0V0Z" fill="#3D7DBD"/>
<path fill-rule="evenodd" clip-rule="evenodd" d="M43.25 39V44.25H28V41.75H40.75V39H43.25Z" fill="#3D7DBD"/>
<path fill-rule="evenodd" clip-rule="evenodd" d="M23.5 24.5H2.5V41.5H23.5V24.5ZM0 22V44H26V22H0Z" fill="#154F7D"/>
<path fill-rule="evenodd" clip-rule="evenodd" d="M40.5 2.5H14.5V34.5H40.5V2.5ZM12 0V37H43V0H12Z" fill="#3D7DBD"/>
<path d="M59.8804 4.79977C62.203 4.79977 64.023 5.35444 65.3404 6.46377C66.6577 7.57311 67.3164 9.09844 67.3164 11.0398C67.3164 12.9811 66.6577 14.5064 65.3404 15.6158C64.023 16.7078 62.203 17.2538 59.8804 17.2538H54.9924V22.9998H53.0684V4.79977H59.8804ZM59.8284 15.5638C61.631 15.5638 63.009 15.1738 63.9624 14.3938C64.9157 13.5964 65.3924 12.4784 65.3924 11.0398C65.3924 9.56644 64.9157 8.43977 63.9624 7.65977C63.009 6.86244 61.631 6.46377 59.8284 6.46377H54.9924V15.5638H59.8284Z" fill="black"/>
<path d="M74.8905 9.21977C76.6758 9.21977 78.0452 9.67044 78.9985 10.5718C79.9518 11.4558 80.4285 12.7731 80.4285 14.5238V22.9998H78.6605V20.8678C78.2445 21.5784 77.6292 22.1331 76.8145 22.5318C76.0172 22.9304 75.0638 23.1298 73.9545 23.1298C72.4291 23.1298 71.2158 22.7658 70.3145 22.0378C69.4132 21.3098 68.9625 20.3478 68.9625 19.1518C68.9625 17.9904 69.3785 17.0544 70.2105 16.3438C71.0598 15.6331 72.4031 15.2778 74.2405 15.2778H78.5825V14.4458C78.5825 13.2671 78.2531 12.3744 77.5945 11.7678C76.9358 11.1438 75.9738 10.8318 74.7085 10.8318C73.8418 10.8318 73.0098 10.9791 72.2125 11.2738C71.4151 11.5511 70.7305 11.9411 70.1585 12.4438L69.3265 11.0658C70.0198 10.4764 70.8518 10.0258 71.8225 9.71377C72.7931 9.38444 73.8158 9.21977 74.8905 9.21977ZM74.2405 21.6738C75.2805 21.6738 76.1732 21.4398 76.9185 20.9718C77.6638 20.4864 78.2185 19.7931 78.5825 18.8918V16.6558H74.2925C71.9525 16.6558 70.7825 17.4704 70.7825 19.0998C70.7825 19.8971 71.0858 20.5298 71.6925 20.9978C72.2992 21.4484 73.1485 21.6738 74.2405 21.6738Z" fill="black"/>
<path d="M84.8227 9.32377H86.6687V20.1918L95.7947 9.32377H97.4327V22.9998H95.5867V12.1318L86.4867 22.9998H84.8227V9.32377ZM91.0367 7.34777C89.858 7.34777 88.922 7.05311 88.2287 6.46377C87.5354 5.87444 87.18 5.04244 87.1627 3.96777H88.4887C88.506 4.64377 88.7487 5.18977 89.2167 5.60577C89.6847 6.00444 90.2914 6.20377 91.0367 6.20377C91.782 6.20377 92.3887 6.00444 92.8567 5.60577C93.342 5.18977 93.5934 4.64377 93.6107 3.96777H94.9367C94.9194 5.04244 94.5554 5.87444 93.8447 6.46377C93.1514 7.05311 92.2154 7.34777 91.0367 7.34777Z" fill="black"/>
<path d="M111.823 10.9618H106.649V22.9998H104.803V10.9618H99.6291V9.32377H111.823V10.9618Z" fill="black"/>
<path d="M128.681 23.1558C126.878 23.1558 125.24 22.7571 123.767 21.9598C122.311 21.1451 121.167 20.0358 120.335 18.6318C119.52 17.2278 119.113 15.6504 119.113 13.8998C119.113 12.1491 119.52 10.5718 120.335 9.16777C121.167 7.76377 122.311 6.66311 123.767 5.86577C125.24 5.05111 126.878 4.64377 128.681 4.64377C130.483 4.64377 132.104 5.04244 133.543 5.83977C134.999 6.63711 136.143 7.74644 136.975 9.16777C137.807 10.5718 138.223 12.1491 138.223 13.8998C138.223 15.6504 137.807 17.2364 136.975 18.6578C136.143 20.0618 134.999 21.1624 133.543 21.9598C132.104 22.7571 130.483 23.1558 128.681 23.1558ZM128.681 21.4398C130.119 21.4398 131.419 21.1191 132.581 20.4778C133.742 19.8191 134.652 18.9178 135.311 17.7738C135.969 16.6124 136.299 15.3211 136.299 13.8998C136.299 12.4784 135.969 11.1958 135.311 10.0518C134.652 8.89044 133.742 7.98911 132.581 7.34777C131.419 6.68911 130.119 6.35977 128.681 6.35977C127.242 6.35977 125.933 6.68911 124.755 7.34777C123.593 7.98911 122.675 8.89044 121.999 10.0518C121.34 11.1958 121.011 12.4784 121.011 13.8998C121.011 15.3211 121.34 16.6124 121.999 17.7738C122.675 18.9178 123.593 19.8191 124.755 20.4778C125.933 21.1191 127.242 21.4398 128.681 21.4398Z" fill="black"/>
<path d="M146.818 16.9158H143.698V22.9998H141.852V9.32377H143.698V15.3298H146.844L151.654 9.32377H153.656L148.274 15.9538L154.046 22.9998H151.862L146.818 16.9158Z" fill="black"/>
<path d="M156.439 9.32377H158.285V15.3818H166.891V9.32377H168.737V22.9998H166.891V16.9678H158.285V22.9998H156.439V9.32377Z" fill="black"/>
<path d="M178.17 9.21977C179.956 9.21977 181.325 9.67044 182.278 10.5718C183.232 11.4558 183.708 12.7731 183.708 14.5238V22.9998H181.94V20.8678C181.524 21.5784 180.909 22.1331 180.094 22.5318C179.297 22.9304 178.344 23.1298 177.234 23.1298C175.709 23.1298 174.496 22.7658 173.594 22.0378C172.693 21.3098 172.242 20.3478 172.242 19.1518C172.242 17.9904 172.658 17.0544 173.49 16.3438C174.34 15.6331 175.683 15.2778 177.52 15.2778H181.862V14.4458C181.862 13.2671 181.533 12.3744 180.874 11.7678C180.216 11.1438 179.254 10.8318 177.988 10.8318C177.122 10.8318 176.29 10.9791 175.492 11.2738C174.695 11.5511 174.01 11.9411 173.438 12.4438L172.606 11.0658C173.3 10.4764 174.132 10.0258 175.102 9.71377C176.073 9.38444 177.096 9.21977 178.17 9.21977ZM177.52 21.6738C178.56 21.6738 179.453 21.4398 180.198 20.9718C180.944 20.4864 181.498 19.7931 181.862 18.8918V16.6558H177.572C175.232 16.6558 174.062 17.4704 174.062 19.0998C174.062 19.8971 174.366 20.5298 174.972 20.9978C175.579 21.4484 176.428 21.6738 177.52 21.6738Z" fill="black"/>
<path d="M59.4075 30.6999V36.9999H58.5255V31.4829H54.8715V36.9999H53.9805V30.6999H59.4075Z" fill="black"/>
<path d="M63.8291 30.6999C64.6451 30.6999 65.2871 30.8949 65.7551 31.2849C66.2231 31.6749 66.4571 32.2119 66.4571 32.8959C66.4571 33.5799 66.2231 34.1169 65.7551 34.5069C65.2871 34.8969 64.6451 35.0919 63.8291 35.0919H62.2721V36.9999H61.3721V30.6999H63.8291ZM63.8021 34.3089C64.3721 34.3089 64.8071 34.1889 65.1071 33.9489C65.4071 33.7029 65.5571 33.3519 65.5571 32.8959C65.5571 32.4399 65.4071 32.0919 65.1071 31.8519C64.8071 31.6059 64.3721 31.4829 63.8021 31.4829H62.2721V34.3089H63.8021Z" fill="black"/>
<path d="M71.4876 35.4249H68.1396L67.4466 36.9999H66.5196L69.3726 30.6999H70.2636L73.1256 36.9999H72.1806L71.4876 35.4249ZM71.1726 34.7049L69.8136 31.6179L68.4546 34.7049H71.1726Z" fill="black"/>
<path d="M78.1369 33.7329C78.5629 33.8349 78.8839 34.0179 79.0999 34.2819C79.3219 34.5399 79.4329 34.8729 79.4329 35.2809C79.4329 35.8269 79.2319 36.2499 78.8299 36.5499C78.4339 36.8499 77.8549 36.9999 77.0929 36.9999H74.2129V30.6999H76.9219C77.6119 30.6999 78.1489 30.8409 78.5329 31.1229C78.9229 31.3989 79.1179 31.7979 79.1179 32.3199C79.1179 32.6619 79.0309 32.9529 78.8569 33.1929C78.6889 33.4329 78.4489 33.6129 78.1369 33.7329ZM75.1039 33.4719H76.8589C77.2969 33.4719 77.6299 33.3849 77.8579 33.2109C78.0919 33.0369 78.2089 32.7819 78.2089 32.4459C78.2089 32.1099 78.0919 31.8549 77.8579 31.6809C77.6239 31.5009 77.2909 31.4109 76.8589 31.4109H75.1039V33.4719ZM77.0749 36.2889C78.0409 36.2889 78.5239 35.9289 78.5239 35.2089C78.5239 34.8489 78.4009 34.5849 78.1549 34.4169C77.9149 34.2429 77.5549 34.1559 77.0749 34.1559H75.1039V36.2889H77.0749Z" fill="black"/>
<path d="M80.9365 30.6999H81.8275V35.5599L85.5535 30.6999H86.3815V36.9999H85.4995V32.1489L81.7645 36.9999H80.9365V30.6999Z" fill="black"/>
<path d="M93.4146 30.6999V36.9999H92.5326V31.4829H89.7426L89.6796 33.3279C89.6496 34.1979 89.5776 34.9029 89.4636 35.4429C89.3556 35.9829 89.1816 36.3909 88.9416 36.6669C88.7016 36.9369 88.3776 37.0719 87.9696 37.0719C87.7836 37.0719 87.5946 37.0479 87.4026 36.9999L87.4656 36.1989C87.5616 36.2229 87.6576 36.2349 87.7536 36.2349C88.0116 36.2349 88.2186 36.1329 88.3746 35.9289C88.5306 35.7189 88.6476 35.4069 88.7256 34.9929C88.8036 34.5789 88.8546 34.0329 88.8786 33.3549L88.9776 30.6999H93.4146Z" fill="black"/>
<path d="M98.14 32.8959C98.89 32.8959 99.463 33.0639 99.859 33.3999C100.261 33.7359 100.462 34.2309 100.462 34.8849C100.462 35.5749 100.246 36.0999 99.814 36.4599C99.388 36.8199 98.776 36.9999 97.978 36.9999H95.377V30.6999H96.268V32.8959H98.14ZM97.942 36.2889C98.464 36.2889 98.863 36.1719 99.139 35.9379C99.421 35.6979 99.562 35.3529 99.562 34.9029C99.562 34.0389 99.022 33.6069 97.942 33.6069H96.268V36.2889H97.942Z" fill="black"/>
<path d="M107.211 30.6999V36.9999H106.311V34.1919H102.693V36.9999H101.793V30.6999H102.693V33.4089H106.311V30.6999H107.211Z" fill="black"/>
<path d="M111.939 32.8959C112.689 32.8959 113.262 33.0639 113.658 33.3999C114.06 33.7359 114.261 34.2309 114.261 34.8849C114.261 35.5749 114.045 36.0999 113.613 36.4599C113.187 36.8199 112.575 36.9999 111.777 36.9999H109.176V30.6999H110.067V32.8959H111.939ZM111.741 36.2889C112.263 36.2889 112.662 36.1719 112.938 35.9379C113.22 35.6979 113.361 35.3529 113.361 34.9029C113.361 34.0389 112.821 33.6069 111.741 33.6069H110.067V36.2889H111.741ZM115.26 30.6999H116.151V36.9999H115.26V30.6999Z" fill="black"/>
<path d="M118.114 30.6999H119.005V35.5599L122.731 30.6999H123.559V36.9999H122.677V32.1489L118.942 36.9999H118.114V30.6999ZM120.823 30.2589C120.331 30.2589 119.95 30.1539 119.68 29.9439C119.416 29.7279 119.281 29.4219 119.275 29.0259H119.914C119.92 29.2599 120.001 29.4429 120.157 29.5749C120.319 29.7009 120.541 29.7639 120.823 29.7639C121.093 29.7639 121.309 29.7009 121.471 29.5749C121.639 29.4429 121.726 29.2599 121.732 29.0259H122.362C122.356 29.4159 122.218 29.7189 121.948 29.9349C121.684 30.1509 121.309 30.2589 120.823 30.2589Z" fill="black"/>
<path d="M131.864 33.7329C132.29 33.8349 132.611 34.0179 132.827 34.2819C133.049 34.5399 133.16 34.8729 133.16 35.2809C133.16 35.8269 132.959 36.2499 132.557 36.5499C132.161 36.8499 131.582 36.9999 130.82 36.9999H127.94V30.6999H130.649C131.339 30.6999 131.876 30.8409 132.26 31.1229C132.65 31.3989 132.845 31.7979 132.845 32.3199C132.845 32.6619 132.758 32.9529 132.584 33.1929C132.416 33.4329 132.176 33.6129 131.864 33.7329ZM128.831 33.4719H130.586C131.024 33.4719 131.357 33.3849 131.585 33.2109C131.819 33.0369 131.936 32.7819 131.936 32.4459C131.936 32.1099 131.819 31.8549 131.585 31.6809C131.351 31.5009 131.018 31.4109 130.586 31.4109H128.831V33.4719ZM130.802 36.2889C131.768 36.2889 132.251 35.9289 132.251 35.2089C132.251 34.8489 132.128 34.5849 131.882 34.4169C131.642 34.2429 131.282 34.1559 130.802 34.1559H128.831V36.2889H130.802Z" fill="black"/>
<path d="M137.427 32.8959C138.177 32.8959 138.75 33.0639 139.146 33.3999C139.548 33.7359 139.749 34.2309 139.749 34.8849C139.749 35.5749 139.533 36.0999 139.101 36.4599C138.675 36.8199 138.063 36.9999 137.265 36.9999H134.664V30.6999H135.555V32.8959H137.427ZM137.229 36.2889C137.751 36.2889 138.15 36.1719 138.426 35.9379C138.708 35.6979 138.849 35.3529 138.849 34.9029C138.849 34.0389 138.309 33.6069 137.229 33.6069H135.555V36.2889H137.229ZM140.748 30.6999H141.639V36.9999H140.748V30.6999Z" fill="black"/>
<path d="M143.603 30.6999H148.355V31.4649H144.494V33.2649H146.456C147.206 33.2649 147.776 33.4209 148.166 33.7329C148.556 34.0449 148.751 34.4949 148.751 35.0829C148.751 35.7009 148.538 36.1749 148.112 36.5049C147.692 36.8349 147.089 36.9999 146.303 36.9999H143.603V30.6999ZM146.267 36.2889C146.783 36.2889 147.176 36.1899 147.446 35.9919C147.716 35.7939 147.851 35.5029 147.851 35.1189C147.851 34.3569 147.323 33.9759 146.267 33.9759H144.494V36.2889H146.267Z" fill="black"/>
<path d="M153.021 37.0719C152.385 37.0719 151.812 36.9339 151.302 36.6579C150.792 36.3759 150.39 35.9889 150.096 35.4969C149.808 35.0049 149.664 34.4559 149.664 33.8499C149.664 33.2439 149.808 32.6949 150.096 32.2029C150.39 31.7109 150.792 31.3269 151.302 31.0509C151.812 30.7689 152.385 30.6279 153.021 30.6279C153.651 30.6279 154.221 30.7689 154.731 31.0509C155.241 31.3269 155.64 31.7109 155.928 32.2029C156.216 32.6889 156.36 33.2379 156.36 33.8499C156.36 34.4619 156.216 35.0139 155.928 35.5059C155.64 35.9919 155.241 36.3759 154.731 36.6579C154.221 36.9339 153.651 37.0719 153.021 37.0719ZM153.021 36.2709C153.483 36.2709 153.897 36.1659 154.263 35.9559C154.635 35.7459 154.926 35.4579 155.136 35.0919C155.352 34.7199 155.46 34.3059 155.46 33.8499C155.46 33.3939 155.352 32.9829 155.136 32.6169C154.926 32.2449 154.635 31.9539 154.263 31.7439C153.897 31.5339 153.483 31.4289 153.021 31.4289C152.559 31.4289 152.139 31.5339 151.761 31.7439C151.389 31.9539 151.095 32.2449 150.879 32.6169C150.669 32.9829 150.564 33.3939 150.564 33.8499C150.564 34.3059 150.669 34.7199 150.879 35.0919C151.095 35.4579 151.389 35.7459 151.761 35.9559C152.139 36.1659 152.559 36.2709 153.021 36.2709Z" fill="black"/>
<path d="M160.271 30.6999C161.087 30.6999 161.729 30.8949 162.197 31.2849C162.665 31.6749 162.899 32.2119 162.899 32.8959C162.899 33.5799 162.665 34.1169 162.197 34.5069C161.729 34.8969 161.087 35.0919 160.271 35.0919H158.714V36.9999H157.814V30.6999H160.271ZM160.244 34.3089C160.814 34.3089 161.249 34.1889 161.549 33.9489C161.849 33.7029 161.999 33.3519 161.999 32.8959C161.999 32.4399 161.849 32.0919 161.549 31.8519C161.249 31.6059 160.814 31.4829 160.244 31.4829H158.714V34.3089H160.244Z" fill="black"/>
</svg>
