<svg width="24" height="24" viewBox="0 0 24 24" fill="none" xmlns="http://www.w3.org/2000/svg">
<path d="M18.1333 18.9334V5.46286C18.1333 4.65495 17.4784 4 16.6705 4H7.32953C6.52161 4 5.86667 4.65495 5.86667 5.46286V18.9334H4V20H20V18.9334H18.1333ZM17.0667 18.9334H12.5334V16.8H11.4667V18.9334H6.93334V5.06667H17.0667V18.9334Z" fill="#2F80ED"/>
<path d="M8.7998 13.6002H9.86647V14.6669H8.7998V13.6002ZM11.4665 13.6002H12.5332V14.6669H11.4665V13.6002ZM14.1331 13.6002H15.1998V14.6669H14.1331V13.6002ZM8.7998 10.4002H9.86647V11.4668H8.7998V10.4002ZM11.4665 10.4002H12.5332V11.4668H11.4665V10.4002ZM14.1331 10.4002H15.1998V11.4668H14.1331V10.4002ZM8.7998 7.2002H9.86647V8.26686H8.7998V7.2002ZM11.4665 7.2002H12.5332V8.26686H11.4665V7.2002ZM14.1331 7.2002H15.1998V8.26686H14.1331V7.2002Z" fill="#2F80ED"/>
</svg>
