<svg width="25" height="24" viewBox="0 0 25 24" fill="none" xmlns="http://www.w3.org/2000/svg">
<path fill-rule="evenodd" clip-rule="evenodd" d="M19.7259 4.77436C19.9862 5.03471 19.9862 5.45682 19.7259 5.71717L6.21717 19.2259C5.95682 19.4863 5.53471 19.4863 5.27436 19.2259C5.01401 18.9656 5.01401 18.5435 5.27436 18.2831L18.7831 4.77436C19.0434 4.51401 19.4656 4.51401 19.7259 4.77436Z" fill="#2F80ED"/>
<path fill-rule="evenodd" clip-rule="evenodd" d="M13.7627 16.6316C13.7627 14.7712 15.2709 13.2632 17.1312 13.2632C18.9915 13.2632 20.4995 14.7713 20.4995 16.6316C20.4995 18.492 18.9915 20 17.1312 20C15.2708 20 13.7627 18.492 13.7627 16.6316ZM17.1312 14.5965C16.0072 14.5965 15.096 15.5077 15.096 16.6316C15.096 17.7556 16.0072 18.6667 17.1312 18.6667C18.2551 18.6667 19.1662 17.7556 19.1662 16.6316C19.1662 15.5076 18.2551 14.5965 17.1312 14.5965Z" fill="#2F80ED"/>
<path fill-rule="evenodd" clip-rule="evenodd" d="M4.5 7.36839C4.5 5.50809 6.00809 4 7.86839 4C9.72869 4 11.2369 5.50807 11.2369 7.36839C11.2369 9.22871 9.72871 10.7369 7.86839 10.7369C6.00807 10.7369 4.5 9.22869 4.5 7.36839ZM7.86839 5.33333C6.74446 5.33333 5.83333 6.24446 5.83333 7.36839C5.83333 8.49235 6.74448 9.40352 7.86839 9.40352C8.99233 9.40352 9.90352 8.49233 9.90352 7.36839C9.90352 6.24448 8.99235 5.33333 7.86839 5.33333Z" fill="#2F80ED"/>
</svg>
