<svg width="25" height="24" viewBox="0 0 25 24" fill="none" xmlns="http://www.w3.org/2000/svg">
<path fill-rule="evenodd" clip-rule="evenodd" d="M9.64355 9.71454C9.64355 8.13662 10.9228 6.85742 12.5007 6.85742C14.0787 6.85742 15.3579 8.13661 15.3579 9.71454C15.3579 11.2926 14.0786 12.5717 12.5007 12.5717C10.9228 12.5717 9.64355 11.2925 9.64355 9.71454ZM12.5007 8.00028C11.5539 8.00028 10.7864 8.7678 10.7864 9.71454C10.7864 10.6613 11.5539 11.4288 12.5007 11.4288C13.4475 11.4288 14.215 10.6613 14.215 9.71454C14.215 8.76782 13.4475 8.00028 12.5007 8.00028Z" fill="#2F80ED"/>
<path fill-rule="evenodd" clip-rule="evenodd" d="M7.92871 4.57157C7.47405 4.57157 7.03801 4.75218 6.71652 5.07367C6.39503 5.39517 6.21442 5.8312 6.21442 6.28586V7.42873C6.21442 7.74432 5.95859 8.00016 5.64299 8.00016H5.07157V9.14299H5.64299C5.95859 9.14299 6.21442 9.39883 6.21442 9.71442C6.21442 10.03 5.95859 10.2859 5.64299 10.2859H5.07157V11.4287H5.64299C5.95859 11.4287 6.21442 11.6845 6.21442 12.0001C6.21442 12.3157 5.95859 12.5715 5.64299 12.5715H5.07157V13.7144H5.64299C5.95859 13.7144 6.21442 13.9703 6.21442 14.2859C6.21442 14.6015 5.95859 14.8573 5.64299 14.8573H5.07157V16.0001H5.64299C5.95859 16.0001 6.21442 16.256 6.21442 16.5716V17.7144C6.21442 18.1691 6.39504 18.6051 6.71652 18.9266C7.03801 19.2481 7.47406 19.4287 7.92871 19.4287H17.0715C17.5262 19.4287 17.9622 19.2481 18.2838 18.9266C18.6053 18.6051 18.7859 18.1691 18.7859 17.7144V6.28586C18.7859 5.83122 18.6053 5.3952 18.2838 5.0737C17.9622 4.75218 17.5262 4.57157 17.0715 4.57157H7.92871ZM5.07156 17.143V17.7144C5.07156 18.4722 5.37258 19.1989 5.90841 19.7347C6.44422 20.2705 7.17094 20.5716 7.92871 20.5716H17.0715C17.8294 20.5716 18.556 20.2705 19.0919 19.7348C19.6277 19.199 19.9287 18.4722 19.9287 17.7144V6.28586C19.9287 5.52809 19.6277 4.80137 19.0919 4.26556C18.5561 3.72977 17.8294 3.42871 17.0715 3.42871H7.92871C7.17095 3.42871 6.44422 3.72973 5.9084 4.26555C5.37259 4.80137 5.07156 5.52809 5.07156 6.28586V6.8573H4.50014C4.18455 6.8573 3.92871 7.11314 3.92871 7.42873V16.5716C3.92871 16.8872 4.18455 17.143 4.50014 17.143H5.07156Z" fill="#2F80ED"/>
<path fill-rule="evenodd" clip-rule="evenodd" d="M9.33683 12.2655C9.87264 11.7297 10.5994 11.4287 11.3571 11.4287H13.6429C14.4006 11.4287 15.1274 11.7297 15.6632 12.2655C16.199 12.8013 16.5 13.5281 16.5 14.2858V15.4287C16.5 15.8833 16.3194 16.3195 15.9978 16.641C15.6763 16.9625 15.2403 17.143 14.7857 17.143H10.2143C9.75967 17.143 9.32367 16.9625 9.0022 16.641C8.6806 16.3195 8.5 15.8833 8.5 15.4287V14.2858C8.5 13.5281 8.80103 12.8013 9.33683 12.2655ZM11.3571 12.5716C10.9025 12.5716 10.4664 12.7522 10.145 13.0737C9.82348 13.3951 9.64286 13.8312 9.64286 14.2858V15.4287C9.64286 15.5803 9.70308 15.7256 9.81019 15.8327L9.81032 15.8328C9.91741 15.94 10.0627 16.0002 10.2143 16.0002H14.7857C14.9373 16.0002 15.0826 15.94 15.1897 15.8328L15.1898 15.8327C15.2969 15.7256 15.3571 15.5803 15.3571 15.4287V14.2858C15.3571 13.8312 15.1765 13.3951 14.855 13.0737C14.5336 12.7522 14.0975 12.5716 13.6429 12.5716H11.3571Z" fill="#2F80ED"/>
</svg>
