<svg width="25" height="24" viewBox="0 0 25 24" fill="none" xmlns="http://www.w3.org/2000/svg">
<path d="M16.8239 10.6667C16.8239 10.8435 16.7536 11.0131 16.6286 11.1381C16.5036 11.2631 16.334 11.3333 16.1572 11.3333H10.8239C10.6471 11.3333 10.4775 11.2631 10.3525 11.1381C10.2275 11.0131 10.1573 10.8435 10.1573 10.6667C10.1573 10.4898 10.2275 10.3203 10.3525 10.1953C10.4775 10.0702 10.6471 10 10.8239 10H16.1572C16.334 10 16.5036 10.0702 16.6286 10.1953C16.7536 10.3203 16.8239 10.4898 16.8239 10.6667ZM16.1572 12.6667H10.8239C10.6471 12.6667 10.4775 12.7369 10.3525 12.8619C10.2275 12.9869 10.1573 13.1565 10.1573 13.3333C10.1573 13.5102 10.2275 13.6797 10.3525 13.8047C10.4775 13.9298 10.6471 14 10.8239 14H16.1572C16.334 14 16.5036 13.9298 16.6286 13.8047C16.7536 13.6797 16.8239 13.5102 16.8239 13.3333C16.8239 13.1565 16.7536 12.9869 16.6286 12.8619C16.5036 12.7369 16.334 12.6667 16.1572 12.6667ZM20.1572 5.33333V18.6667C20.1572 19.0203 20.0167 19.3595 19.7667 19.6095C19.5167 19.8595 19.1775 20 18.8239 20H5.49056C5.13694 20 4.7978 19.8595 4.54775 19.6095C4.2977 19.3595 4.15723 19.0203 4.15723 18.6667V5.33333C4.15723 4.97971 4.2977 4.64057 4.54775 4.39052C4.7978 4.14048 5.13694 4 5.49056 4H18.8239C19.1775 4 19.5167 4.14048 19.7667 4.39052C20.0167 4.64057 20.1572 4.97971 20.1572 5.33333ZM5.49056 18.6667H7.49059V5.33333H5.49056V18.6667ZM18.8239 18.6667V5.33333H8.82386V18.6667H18.8239Z" fill="#2F80ED"/>
</svg>
